<svg height="509pt" viewBox="0 0 509 509" width="509pt" xmlns="http://www.w3.org/2000/svg"><path d="m509 254.5c0 140.554688-113.945312 254.5-254.5 254.5s-254.5-113.945312-254.5-254.5 113.945312-254.5 254.5-254.5 254.5 113.945312 254.5 254.5zm0 0" fill="#ff0062"/><path d="m509 254.5c0-7.699219-.398438-15.398438-1-22.898438l-113.398438-113.402343-279.601562 273.199219 116.5 116.5c7.601562.703124 15.300781 1 23 1 140.601562.101562 254.5-113.898438 254.5-254.398438zm0 0" fill="#dd0e4e"/><path d="m361 405.898438h-212.898438c-24.800781 0-45-20.097657-45-45v-212.796876c0-24.800781 20.097657-45 45-45h212.898438c24.800781 0 45 20.097657 45 45v212.898438c0 24.800781-20.199219 44.898438-45 44.898438zm0 0" fill="#ffe000"/><g fill="#ffc200"><path d="m361 103.101562h-106.898438v302.796876h106.898438c24.800781 0 45-20.097657 45-45v-212.796876c0-24.902343-20.199219-45-45-45zm0 0"/><path d="m136.898438 135.199219h57.703124v57.699219h-57.703124zm0 0"/><path d="m225.699219 135.199219h57.699219v57.699219h-57.699219zm0 0"/></g><path d="m254.101562 135.199219h29.199219v57.699219h-29.199219zm0 0" fill="#fc9315"/><path d="m314.5 135.199219h57.699219v57.699219h-57.699219zm0 0" fill="#fc9315"/><path d="m136.898438 316.101562h57.703124v57.699219h-57.703124zm0 0" fill="#ffc200"/><path d="m225.699219 316.101562h57.699219v57.699219h-57.699219zm0 0" fill="#ffc200"/><path d="m254.101562 316.101562h29.199219v57.699219h-29.199219zm0 0" fill="#fc9315"/><path d="m314.5 316.101562h57.699219v57.699219h-57.699219zm0 0" fill="#fc9315"/><path d="m136.898438 225.699219h57.703124v57.699219h-57.703124zm0 0" fill="#ffc200"/><path d="m225.699219 225.699219h57.699219v57.699219h-57.699219zm0 0" fill="#ffc200"/><path d="m254.101562 225.699219h29.199219v57.699219h-29.199219zm0 0" fill="#fc9315"/><path d="m314.5 225.699219h57.699219v57.699219h-57.699219zm0 0" fill="#fc9315"/></svg>